<svg width="36" height="36" viewBox="0 0 36 36" fill="none" xmlns="http://www.w3.org/2000/svg">
<rect opacity="0.5" width="36" height="36" rx="6" fill="#E9F7F4"/>
<path d="M12.9955 26.9419L13.1193 26.9281L13.2351 26.9741C14.09 27.3133 15.0226 27.5 16 27.5C20.1421 27.5 23.5 24.1421 23.5 20C23.5 15.8579 20.1421 12.5 16 12.5C11.8579 12.5 8.5 15.8579 8.5 20C8.5 20.9774 8.68671 21.91 9.02594 22.7649L9.07189 22.8807L9.05813 23.0045L8.56596 27.434L12.9955 26.9419Z" stroke="#1FAE96"/>
<path d="M13.788 25.5791C14.4725 25.8507 15.2188 26 16 26C19.3137 26 22 23.3137 22 20C22 16.6863 19.3137 14 16 14C12.6863 14 10 16.6863 10 20C10 20.7812 10.1493 21.5275 10.4209 22.212L10 26L13.788 25.5791Z" fill="white"/>
<path d="M22.6888 22.9068L22.565 22.893L22.4492 22.939C21.5373 23.3009 20.5425 23.5 19.5 23.5C15.0817 23.5 11.5 19.9183 11.5 15.5C11.5 11.0817 15.0817 7.5 19.5 7.5C23.9183 7.5 27.5 11.0817 27.5 15.5C27.5 16.5425 27.3009 17.5373 26.939 18.4492L26.893 18.565L26.9068 18.6888L27.434 23.434L22.6888 22.9068Z" fill="#F7FBFF" stroke="#1FAE96"/>
<path d="M21.8963 21.544C21.1548 21.8383 20.3463 22 19.5 22C15.9101 22 13 19.0899 13 15.5C13 11.9101 15.9101 9 19.5 9C23.0899 9 26 11.9101 26 15.5C26 16.3463 25.8383 17.1548 25.544 17.8963L26 22L21.8963 21.544Z" fill="white"/>
</svg>
