<svg width="36" height="36" viewBox="0 0 36 36" fill="none" xmlns="http://www.w3.org/2000/svg">
<rect opacity="0.5" width="36" height="36" rx="6" fill="#E9F7F4"/>
<mask id="path-2-inside-1" fill="white">
<path fill-rule="evenodd" clip-rule="evenodd" d="M11 10C9.89539 10 9 10.8954 9 12V26V28L15 26H25C26.1046 26 27 25.1046 27 24V12C27 10.8954 26.1046 10 25 10H11Z"/>
</mask>
<path d="M9 28H8V29.3874L9.31623 28.9487L9 28ZM15 26V25H14.8377L14.6838 25.0513L15 26ZM10 12C10 11.4477 10.4477 11 11 11V9C9.3431 9 8 10.3431 8 12H10ZM10 26V12H8V26H10ZM8 26V28H10V26H8ZM9.31623 28.9487L15.3162 26.9487L14.6838 25.0513L8.68377 27.0513L9.31623 28.9487ZM25 25H15V27H25V25ZM26 24C26 24.5523 25.5523 25 25 25V27C26.6569 27 28 25.6569 28 24H26ZM26 12V24H28V12H26ZM25 11C25.5523 11 26 11.4477 26 12H28C28 10.3431 26.6569 9 25 9V11ZM11 11H25V9H11V11Z" fill="#1FAE96" mask="url(#path-2-inside-1)"/>
<path fill-rule="evenodd" clip-rule="evenodd" d="M11.5 12C11.2239 12 11 12.2239 11 12.5V23V23.5V25.25L14.4722 24H24.5C24.7761 24 25 23.7761 25 23.5V12.5C25 12.2239 24.7761 12 24.5 12H11.5Z" fill="white"/>
<path fill-rule="evenodd" clip-rule="evenodd" d="M14.75 18C14.75 18.4142 14.4142 18.75 14 18.75C13.5858 18.75 13.25 18.4142 13.25 18C13.25 17.5858 13.5858 17.25 14 17.25C14.4142 17.25 14.75 17.5858 14.75 18ZM18.75 18C18.75 18.4142 18.4142 18.75 18 18.75C17.5858 18.75 17.25 18.4142 17.25 18C17.25 17.5858 17.5858 17.25 18 17.25C18.4142 17.25 18.75 17.5858 18.75 18ZM22 18.75C22.4142 18.75 22.75 18.4142 22.75 18C22.75 17.5858 22.4142 17.25 22 17.25C21.5858 17.25 21.25 17.5858 21.25 18C21.25 18.4142 21.5858 18.75 22 18.75Z" fill="#1FAE96"/>
</svg>
