<svg width="36" height="36" viewBox="0 0 36 36" fill="none" xmlns="http://www.w3.org/2000/svg">
<rect opacity="0.5" width="36" height="36" rx="6" fill="#E9F7F4"/>
<path d="M18 27.5C12.7533 27.5 8.5 23.2467 8.5 18C8.5 12.7533 12.7533 8.5 18 8.5C23.2467 8.5 27.5 12.7533 27.5 18C27.5 23.2467 23.2467 27.5 18 27.5Z" stroke="#1FAE96"/>
<path d="M18 25.5C13.8579 25.5 10.5 22.1421 10.5 18C10.5 13.8579 13.8579 10.5 18 10.5C22.1421 10.5 25.5 13.8579 25.5 18C25.5 22.1421 22.1421 25.5 18 25.5Z" fill="white" stroke="white"/>
<path d="M18 23.5C14.9624 23.5 12.5 21.0376 12.5 18C12.5 14.9624 14.9624 12.5 18 12.5C21.0376 12.5 23.5 14.9624 23.5 18C23.5 21.0376 21.0376 23.5 18 23.5Z" stroke="#1FAE96"/>
<path d="M18 20C16.8954 20 16 19.1046 16 18C16 16.8954 16.8954 16 18 16C19.1046 16 20 16.8954 20 18C20 19.1046 19.1046 20 18 20Z" fill="#1FAE96"/>
</svg>
