<svg width="36" height="36" viewBox="0 0 36 36" fill="none" xmlns="http://www.w3.org/2000/svg">
<rect opacity="0.5" width="36" height="36" rx="6" fill="#E9F7F4"/>
<mask id="path-2-inside-1" fill="white">
<path fill-rule="evenodd" clip-rule="evenodd" d="M11 9C9.89539 9 9 9.89539 9 11V25V27L15 25H25C26.1046 25 27 24.1046 27 23V11C27 9.89539 26.1046 9 25 9H11Z"/>
</mask>
<path d="M9 27H8V28.3874L9.31623 27.9487L9 27ZM15 25V24H14.8377L14.6838 24.0513L15 25ZM10 11C10 10.4477 10.4477 10 11 10V8C9.3431 8 8 9.3431 8 11H10ZM10 25V11H8V25H10ZM8 25V27H10V25H8ZM9.31623 27.9487L15.3162 25.9487L14.6838 24.0513L8.68377 26.0513L9.31623 27.9487ZM25 24H15V26H25V24ZM26 23C26 23.5523 25.5523 24 25 24V26C26.6569 26 28 24.6569 28 23H26ZM26 11V23H28V11H26ZM25 10C25.5523 10 26 10.4477 26 11H28C28 9.3431 26.6569 8 25 8V10ZM11 10H25V8H11V10Z" fill="#1FAE96" mask="url(#path-2-inside-1)"/>
<path fill-rule="evenodd" clip-rule="evenodd" d="M11.5 11C11.2239 11 11 11.2239 11 11.5V22V22.5V24.25L14.4722 23H24.5C24.7761 23 25 22.7761 25 22.5V11.5C25 11.2239 24.7761 11 24.5 11H11.5Z" fill="white"/>
<path fill-rule="evenodd" clip-rule="evenodd" d="M17.9951 18.5605L16.1333 19.5L16.4889 17.5101L15 15.9726L17.0642 15.8105L17.9951 14L18.926 15.8105L21 15.9726L19.5013 17.5101L19.8569 19.5L17.9951 18.5605Z" fill="#1FAE96"/>
</svg>
