<svg width="36" height="36" viewBox="0 0 36 36" fill="none" xmlns="http://www.w3.org/2000/svg">
<rect opacity="0.5" width="36" height="36" rx="6" fill="#E9F7F4"/>
<path d="M15.3112 24.9068L15.435 24.893L15.5508 24.939C16.4627 25.3009 17.4575 25.5 18.5 25.5C22.9183 25.5 26.5 21.9183 26.5 17.5C26.5 13.0817 22.9183 9.5 18.5 9.5C14.0817 9.5 10.5 13.0817 10.5 17.5C10.5 18.5425 10.6991 19.5373 11.061 20.4492L11.107 20.565L11.0932 20.6888L10.566 25.434L15.3112 24.9068Z" fill="#F7FBFF" stroke="#1FAE96"/>
<path d="M25 16L28 15V19H25V16Z" fill="#E9F7F4"/>
<path d="M26.5 17L28 19H25L26.5 17Z" fill="#1FAE96"/>
<path d="M16.1037 23.544C16.8452 23.8383 17.6537 24 18.5 24C22.0899 24 25 21.0899 25 17.5C25 13.9101 22.0899 11 18.5 11C14.9101 11 12 13.9101 12 17.5C12 18.3463 12.1617 19.1548 12.456 19.8963L12 24L16.1037 23.544Z" fill="white"/>
<path d="M21 20L18.5 17.76V13" stroke="#1FAE96" stroke-linecap="round" stroke-linejoin="round"/>
</svg>
