<svg width="899" height="44" viewBox="0 0 899 44" fill="none" xmlns="http://www.w3.org/2000/svg">
<path d="M115.453 17.6352C116.991 17.6352 118.238 16.4098 118.238 14.8983C118.238 13.3867 116.991 12.1613 115.453 12.1613C113.915 12.1613 112.668 13.3867 112.668 14.8983C112.668 16.4098 113.915 17.6352 115.453 17.6352Z" fill="#617080"/>
<path d="M75.6737 26.5689C77.04 26.5689 77.8283 25.562 77.7757 24.5808C77.7495 24.0644 77.6969 23.7287 77.6444 23.4705C76.8036 19.9073 73.8608 17.2737 70.3662 17.2737C66.2148 17.2737 62.8516 20.966 62.8516 25.5103C62.8516 30.0547 66.2148 33.747 70.3662 33.747C72.9674 33.747 74.8329 32.8174 76.173 31.3457C76.8298 30.6227 76.6985 29.5125 75.9102 28.9702C75.2533 28.5313 74.4388 28.6862 73.8345 29.1768C73.2564 29.6674 72.1529 30.6485 70.3662 30.6485C68.2642 30.6485 66.4775 28.8669 66.0834 26.5173H75.6737V26.5689ZM70.3399 20.3979C72.2317 20.3979 73.8608 21.8439 74.4651 23.832H66.2148C66.8191 21.818 68.4481 20.3979 70.3399 20.3979Z" fill="#617080"/>
<path d="M63.0093 18.9002C63.0093 18.1256 62.4313 17.506 61.6956 17.3769C59.4096 17.0412 57.2551 17.8674 56.0202 19.3908V19.1843C56.0202 18.2289 55.2319 17.6351 54.4437 17.6351C53.5766 17.6351 52.8672 18.3322 52.8672 19.1843V31.8362C52.8672 32.6624 53.4978 33.3854 54.3386 33.437C55.2582 33.4887 56.0202 32.7915 56.0202 31.8878V25.3553C56.0202 22.4634 58.2273 20.088 61.2752 20.4236C61.3803 20.4236 61.4854 20.4236 61.5905 20.4236C62.3787 20.372 63.0093 19.7007 63.0093 18.9002Z" fill="#617080"/>
<path d="M117.032 20.5527C117.032 19.7007 116.322 19.0035 115.455 19.0035C114.588 19.0035 113.879 19.7007 113.879 20.5527C113.879 20.6044 113.879 31.3972 113.879 31.8878C113.879 32.7399 114.588 33.437 115.455 33.437C116.322 33.437 117.032 32.7399 117.032 31.8878C117.032 31.423 117.032 20.6302 117.032 20.5527Z" fill="#617080"/>
<path d="M93.594 11.9806C93.594 11.1285 92.8845 10.4314 92.0175 10.4314C91.1504 10.4314 90.441 11.1285 90.441 11.9806V18.8746C89.3637 17.8159 88.0237 17.2995 86.4209 17.2995C82.2694 17.2995 78.9062 20.9918 78.9062 25.5362C78.9062 30.0805 82.2694 33.7728 86.4209 33.7728C88.0237 33.7728 89.39 33.2306 90.4672 32.172C90.5986 32.8949 91.2555 33.4372 92.0175 33.4372C92.8845 33.4372 93.594 32.74 93.594 31.888V11.9806ZM86.4472 30.7002C84.0299 30.7002 82.0855 28.4022 82.0855 25.5362C82.0855 22.696 84.0299 20.3721 86.4472 20.3721C88.8645 20.3721 90.8088 22.6701 90.8088 25.5362C90.8088 28.4022 88.8382 30.7002 86.4472 30.7002Z" fill="#617080"/>
<path d="M110.043 11.9806C110.043 11.1285 109.334 10.4314 108.467 10.4314C107.6 10.4314 106.89 11.1285 106.89 11.9806V18.8746C105.813 17.8159 104.473 17.2995 102.87 17.2995C98.7187 17.2995 95.3555 20.9918 95.3555 25.5362C95.3555 30.0805 98.7187 33.7728 102.87 33.7728C104.473 33.7728 105.839 33.2306 106.916 32.172C107.048 32.8949 107.705 33.4372 108.467 33.4372C109.334 33.4372 110.043 32.74 110.043 31.888V11.9806ZM102.87 30.7002C100.453 30.7002 98.5085 28.4022 98.5085 25.5362C98.5085 22.696 100.453 20.3721 102.87 20.3721C105.287 20.3721 107.232 22.6701 107.232 25.5362C107.232 28.4022 105.287 30.7002 102.87 30.7002Z" fill="#617080"/>
<path d="M125.016 31.9137V20.3979H126.409C127.145 20.3979 127.802 19.8557 127.854 19.1069C127.907 18.3065 127.25 17.6352 126.462 17.6352H125.016V15.4663C125.016 14.64 124.386 13.9171 123.545 13.8654C122.625 13.8138 121.863 14.5109 121.863 15.4146V17.661H120.55C119.814 17.661 119.157 18.2032 119.105 18.952C119.052 19.7524 119.709 20.4238 120.497 20.4238H121.837V31.9396C121.837 32.7916 122.547 33.4888 123.414 33.4888C124.333 33.4371 125.016 32.7658 125.016 31.9137Z" fill="#617080"/>
<path d="M22.0184 43.2747C34.1789 43.2747 44.0368 33.5873 44.0368 21.6373C44.0368 9.68736 34.1789 0 22.0184 0C9.85798 0 0 9.68736 0 21.6373C0 33.5873 9.85798 43.2747 22.0184 43.2747Z" fill="#617080"/>
<path d="M36.7057 21.6374C36.7057 19.8817 35.2605 18.4874 33.5001 18.4874C32.6331 18.4874 31.8448 18.823 31.2668 19.3653C29.0597 17.8161 26.038 16.8091 22.6748 16.68L24.1462 9.91504L28.9283 10.9221C28.9808 12.1098 29.9793 13.0651 31.2142 13.0651C32.4754 13.0651 33.5001 12.0582 33.5001 10.8188C33.5001 9.57938 32.4754 8.57239 31.2142 8.57239C30.3209 8.57239 29.5326 9.08879 29.1648 9.83758L23.8309 8.72731C23.6733 8.70149 23.5156 8.72731 23.4105 8.80477C23.2792 8.88223 23.2003 9.01133 23.1741 9.16625L21.545 16.7058C18.1293 16.8091 15.0551 17.8161 12.8217 19.3911C12.2437 18.8489 11.4554 18.5132 10.5884 18.5132C8.80166 18.5132 7.38281 19.9333 7.38281 21.6633C7.38281 22.9543 8.17106 24.0387 9.27461 24.5293C9.22206 24.8392 9.19579 25.149 9.19579 25.4847C9.19579 30.3389 14.95 34.2893 22.0442 34.2893C29.1385 34.2893 34.8927 30.3647 34.8927 25.4847C34.8927 25.1748 34.8664 24.8392 34.8139 24.5293C35.9174 24.0387 36.7057 22.9285 36.7057 21.6374ZM14.6873 23.8838C14.6873 22.6444 15.712 21.6374 16.9732 21.6374C18.2344 21.6374 19.2591 22.6444 19.2591 23.8838C19.2591 25.1232 18.2344 26.1302 16.9732 26.1302C15.712 26.156 14.6873 25.1232 14.6873 23.8838ZM27.4832 29.8483C25.9067 31.3975 22.9113 31.5008 22.0442 31.5008C21.1509 31.5008 18.1555 31.3717 16.6053 29.8483C16.3688 29.6159 16.3688 29.2544 16.6053 29.022C16.8418 28.7896 17.2097 28.7896 17.4461 29.022C18.4446 30.0032 20.5466 30.3389 22.0442 30.3389C23.5419 30.3389 25.6702 30.0032 26.6424 29.022C26.8788 28.7896 27.2467 28.7896 27.4832 29.022C27.6934 29.2544 27.6934 29.6159 27.4832 29.8483ZM27.0628 26.156C25.8016 26.156 24.7768 25.149 24.7768 23.9096C24.7768 22.6703 25.8016 21.6633 27.0628 21.6633C28.324 21.6633 29.3487 22.6703 29.3487 23.9096C29.3487 25.1232 28.324 26.156 27.0628 26.156Z" fill="white"/>
<path d="M630.26 16.2666C630.26 16.2666 633.034 13.9266 636.414 13.9266V18.4333C629.827 18.3466 630.26 23.6333 630.26 23.6333V34.0333H626.187V14.2733H630.26V16.2666ZM654.18 14.2733H658.167V25.28C658.167 30.3066 654.18 34.5533 649.154 34.5533C644.127 34.5533 640.14 30.3066 640.14 25.28V14.2733H644.127V25.28C644.127 28.0533 646.38 30.3933 649.154 30.3933C651.927 30.3933 654.18 28.0533 654.18 25.28V14.2733ZM662.154 34.0333V14.2733H666.227V34.12H662.154V34.0333ZM614.14 17.9133C610.76 17.9133 607.987 20.6866 607.987 24.0666C607.987 27.4466 610.76 30.22 614.14 30.22C616.22 30.22 618.04 29.18 619.254 27.5333L622.46 29.96C620.467 32.6466 617.434 34.2933 614.14 34.2933C608.507 34.38 604 29.7866 604 24.0666C604 18.3466 608.594 13.84 614.14 13.84C617.434 13.84 620.64 15.4866 622.46 18.1733L619.254 20.6C618.127 18.9533 616.22 17.9133 614.14 17.9133ZM690.927 22.2466H702.714C701.587 17.3933 696.82 17.5666 696.82 17.5666C696.82 17.5666 692.487 17.22 690.927 22.2466ZM696.734 13.9266C696.734 13.9266 707.134 13.58 706.614 25.6266H690.84C691.187 27.1 691.88 28.3133 693.007 29.3533C694.134 30.3933 695.607 30.9133 697.254 30.9133C697.254 30.9133 700.634 31.0866 702.627 28.2266L705.574 30.3933C704.794 31.52 703.494 32.4733 701.76 33.34C700.287 34.0333 698.554 34.4666 696.907 34.4666C691.274 34.4666 687.027 29.8733 687.027 24.24C686.94 18.52 691.274 13.9266 696.734 13.9266ZM682.434 24.0666C682.434 24.0666 684.6 25.3666 684.514 28.4C684.514 28.4 684.687 32.6466 680.007 34.0333C680.007 34.0333 674.46 35.8533 669.954 31.3466L672.034 28.4866C676.627 32.3 679.66 30.1333 679.66 30.1333C680.18 29.7 680.44 29.18 680.44 28.5733C680.44 27.0133 678.447 26.4933 678.447 26.4933C677.84 26.32 677.234 26.06 676.454 25.8866C676.454 25.8866 674.027 25.28 672.207 24.1533C671.6 23.72 671.08 23.2 670.647 22.5066C670.214 21.8133 670.04 20.9466 670.04 19.9066C670.04 19.9066 669.867 16.0066 673.507 14.36C673.507 14.36 678.62 12.1933 683.387 16.0066L681.307 19.04C679.14 17.3933 676.974 17.48 676.974 17.48C676.02 17.48 675.414 17.6533 674.894 18.0866C674.46 18.52 674.2 18.8666 674.2 19.3866C674.2 19.3866 674.027 20.6 676.194 21.4666C676.8 21.64 677.407 21.9 678.187 22.0733C678.88 22.2466 679.66 22.5933 680.354 22.7666C681.134 23.2866 681.827 23.72 682.434 24.0666ZM664.147 5C665.707 5 666.92 6.21334 666.92 7.86C666.92 9.50667 665.707 10.72 664.147 10.72C662.587 10.72 661.374 9.50667 661.374 7.86C661.374 6.21334 662.587 5 664.147 5Z" fill="#617080"/>
<path d="M803.431 29.7276C799.981 29.7276 797.185 26.9863 797.185 23.604C797.185 20.2223 799.981 17.4806 803.431 17.4806C806.881 17.4806 809.677 20.2223 809.677 23.604C809.677 26.9863 806.881 29.7276 803.431 29.7276ZM809.697 30.5044C809.697 31.0649 810.698 32.6403 811.926 32.6403H812.721C813.029 32.6403 813.281 32.398 813.281 32.1025V15.3453H813.278C813.262 15.0631 813.019 14.8369 812.721 14.8369H810.257C809.96 14.8369 809.716 15.0631 809.7 15.3453H809.697V16.707C808.187 14.9237 805.808 14.1839 803.421 14.1839C797.997 14.1839 793.601 18.4011 793.601 23.604C793.601 28.8069 797.997 33.0248 803.421 33.0248C805.808 33.0248 808.408 32.1368 809.696 30.502L809.697 30.5044ZM819.167 28.1045C820.811 29.1969 822.606 29.7276 824.331 29.7276C825.975 29.7276 827.673 28.9103 827.673 27.4883C827.673 25.5894 823.971 25.2938 821.646 24.5357C819.319 23.7775 817.316 22.2098 817.316 19.6715C817.316 15.7876 820.924 14.1833 824.291 14.1833C826.425 14.1833 828.626 14.8583 830.054 15.8252C830.546 16.1822 830.246 16.5926 830.246 16.5926L828.883 18.4591C828.73 18.6692 828.413 18.8371 828.078 18.6231C827.16 18.0412 826.138 17.4804 824.291 17.4804C822.005 17.4804 820.999 18.3908 820.999 19.5186C820.999 20.8716 822.607 21.297 824.492 21.7583C827.775 22.6068 831.357 23.6275 831.357 27.4883C831.357 30.9103 828.019 33.0254 824.331 33.0254C821.536 33.0254 819.156 32.2609 817.16 30.8561C816.745 30.4571 817.035 30.0864 817.035 30.0864L818.391 28.2297C818.667 27.8822 819.015 28.0035 819.167 28.1045ZM849.831 30.5044C849.831 31.0649 850.831 32.6403 852.061 32.6403H852.851C853.161 32.6403 853.411 32.398 853.411 32.1025V15.3453C853.391 15.0631 853.151 14.8369 852.851 14.8369H850.391C850.091 14.8369 849.851 15.0631 849.831 15.3453V16.707C848.321 14.9237 845.941 14.1839 843.556 14.1839C838.132 14.1839 833.734 18.4011 833.734 23.604C833.734 28.8069 838.132 33.0248 843.556 33.0248C845.941 33.0248 848.541 32.1368 849.831 30.502V30.5044ZM843.565 29.7276C840.115 29.7276 837.319 26.9863 837.319 23.604C837.319 20.2223 840.115 17.4806 843.565 17.4806C847.011 17.4806 849.811 20.2223 849.811 23.604C849.811 26.9863 847.011 29.7276 843.565 29.7276ZM875.491 31.0803L875.481 22.4095C875.481 17.5214 872.271 14.224 867.141 14.224C864.701 14.224 862.691 15.5814 861.981 16.7472V16.731V16.7443C861.981 15.5643 860.981 14.8772 859.751 14.8772H858.961C858.651 14.8772 858.401 15.1195 858.401 15.4153V30.5463V30.5489V32.1735C858.421 32.4557 858.661 32.6822 858.961 32.6822H861.421C861.461 32.6822 861.501 32.6778 861.531 32.6714C861.551 32.6681 861.571 32.6619 861.581 32.6575C861.601 32.6523 861.621 32.648 861.641 32.641C861.661 32.6324 861.681 32.6205 861.701 32.6096C861.711 32.6038 861.721 32.5997 861.731 32.5939C861.751 32.5786 861.781 32.5602 861.801 32.5414C861.801 32.5379 861.811 32.5356 861.811 32.5323C861.831 32.5097 861.861 32.4851 861.881 32.4587V32.4584C861.941 32.3771 861.981 32.2794 861.981 32.1735V22.2749C861.981 19.6497 864.201 17.5214 866.941 17.5214C869.681 17.5214 871.901 19.6497 871.901 22.2749V30.5492V30.5463C871.901 30.5535 871.901 30.5612 871.901 30.5688V32.1735C871.921 32.4557 872.161 32.6822 872.461 32.6822H874.921C874.961 32.6822 875.001 32.6778 875.041 32.6714C875.051 32.6682 875.061 32.6626 875.081 32.6593C875.101 32.6536 875.121 32.6486 875.141 32.641C875.161 32.6328 875.181 32.6219 875.201 32.6117C875.211 32.6056 875.221 32.6008 875.231 32.5939C875.251 32.5792 875.271 32.562 875.291 32.545C875.301 32.5406 875.311 32.5367 875.311 32.5321C875.331 32.5106 875.351 32.4872 875.371 32.4628C875.371 32.4607 875.381 32.4593 875.381 32.4575C875.441 32.3771 875.481 32.2801 875.481 32.175C875.481 32.1744 875.481 32.1735 875.481 32.1735H875.491V31.0807V31.0803ZM894.701 30.5044C894.701 31.0649 895.701 32.6403 896.921 32.6403H897.721C898.031 32.6403 898.281 32.398 898.281 32.1025V15.3453C898.261 15.0631 898.021 14.8369 897.721 14.8369H895.261C894.961 14.8369 894.721 15.0631 894.701 15.3453V16.707C893.191 14.9237 890.811 14.1839 888.421 14.1839C883.001 14.1839 878.601 18.4011 878.601 23.604C878.601 28.8069 883.001 33.0248 888.421 33.0248C890.811 33.0248 893.411 32.1368 894.691 30.502L894.701 30.5044ZM888.431 29.7276C884.981 29.7276 882.181 26.9863 882.181 23.604C882.181 20.2223 884.981 17.4806 888.431 17.4806C891.881 17.4806 894.681 20.2223 894.681 23.604C894.681 26.9863 891.881 29.7276 888.431 29.7276ZM780.245 24.4142C783.966 24.4142 786.983 27.3151 786.983 30.8937C786.983 34.4725 783.966 37.3736 780.245 37.3736C776.523 37.3736 773.506 34.4725 773.506 30.8937C773.506 27.3151 776.523 24.4142 780.245 24.4142ZM762.738 24.4146C766.46 24.4146 769.477 27.3151 769.477 30.894C769.477 34.4725 766.46 37.3736 762.738 37.3736C759.017 37.3736 756 34.4725 756 30.894C756 27.3151 759.017 24.4146 762.738 24.4146ZM778.229 16.3146C778.229 19.8932 775.213 22.7947 771.491 22.7947C767.77 22.7947 764.753 19.8932 764.753 16.3146C764.753 12.7362 767.77 9.83514 771.491 9.83514C775.213 9.83514 778.229 12.7362 778.229 16.3146Z" fill="#617080"/>
<path d="M219.699 32.4931L221.366 28.6213C223.168 29.9657 225.561 30.6648 227.927 30.6648C229.675 30.6648 230.777 29.9926 230.777 28.9708C230.75 26.1207 220.318 28.3524 220.237 21.2002C220.21 17.5704 223.437 14.774 228.008 14.774C230.723 14.774 233.439 15.4462 235.375 16.9789L233.816 20.9314C232.041 19.8021 229.836 18.9954 227.739 18.9954C226.314 18.9954 225.373 19.6676 225.373 20.528C225.4 23.3244 235.913 21.7918 236.02 28.6213C236.02 32.3318 232.874 34.9399 228.357 34.9399C225.05 34.9399 222.012 34.1602 219.699 32.4931Z" fill="#617080"/>
<path d="M283.664 27.2231C282.831 28.6751 281.271 29.6699 279.47 29.6699C276.808 29.6699 274.657 27.5189 274.657 24.857C274.657 22.1951 276.808 20.0441 279.47 20.0441C281.271 20.0441 282.831 21.0389 283.664 22.4909L288.262 19.9365C286.541 16.8713 283.234 14.774 279.47 14.774C273.904 14.774 269.387 19.2912 269.387 24.857C269.387 30.4228 273.904 34.9399 279.47 34.9399C283.261 34.9399 286.541 32.8696 288.262 29.7775L283.664 27.2231Z" fill="#617080"/>
<path d="M244.086 6.41199H238.332V34.5636H244.086V6.41199Z" fill="#617080"/>
<path d="M290.524 6.41199V34.5636H296.278V26.1208L303.107 34.5636H310.474L301.79 24.5344L309.829 15.1775H302.784L296.278 22.948V6.41199H290.524Z" fill="#617080"/>
<path d="M261.187 27.2769C260.354 28.6482 258.633 29.6699 256.697 29.6699C254.035 29.6699 251.884 27.5189 251.884 24.857C251.884 22.1951 254.035 20.0441 256.697 20.0441C258.633 20.0441 260.354 21.1196 261.187 22.5177V27.2769ZM261.187 15.1774V17.4628C260.246 15.8764 257.907 14.774 255.46 14.774C250.405 14.774 246.426 19.2374 246.426 24.8301C246.426 30.4228 250.405 34.9399 255.46 34.9399C257.907 34.9399 260.246 33.8375 261.187 32.2511V34.5366H266.941V15.1774H261.187Z" fill="#617080"/>
<path d="M184.126 27.2499C184.126 29.2127 182.54 30.7991 180.577 30.7991C178.614 30.7991 177.028 29.2127 177.028 27.2499C177.028 25.2871 178.614 23.7007 180.577 23.7007H184.126V27.2499Z" fill="#617080"/>
<path d="M185.899 27.2499C185.899 25.2871 187.485 23.7007 189.448 23.7007C191.411 23.7007 192.997 25.2871 192.997 27.2499V36.1229C192.997 38.0857 191.411 39.6721 189.448 39.6721C187.485 39.6721 185.899 38.0857 185.899 36.1229V27.2499Z" fill="#617080"/>
<path d="M189.448 12.9994C187.485 12.9994 185.899 11.413 185.899 9.4502C185.899 7.48738 187.485 5.901 189.448 5.901C191.411 5.901 192.997 7.48738 192.997 9.4502V12.9994H189.448Z" fill="#617080"/>
<path d="M189.449 14.801C191.412 14.801 192.998 16.3873 192.998 18.3502C192.998 20.313 191.412 21.8994 189.449 21.8994H180.549C178.587 21.8994 177 20.313 177 18.3502C177 16.3873 178.587 14.801 180.549 14.801H189.449Z" fill="#617080"/>
<path d="M203.676 18.3501C203.676 16.3873 205.262 14.8009 207.225 14.8009C209.188 14.8009 210.774 16.3873 210.774 18.3501C210.774 20.3129 209.188 21.8993 207.225 21.8993H203.676V18.3501Z" fill="#617080"/>
<path d="M201.899 18.3501C201.899 20.3129 200.313 21.8993 198.35 21.8993C196.387 21.8993 194.801 20.3129 194.801 18.3501V9.4502C194.801 7.48738 196.387 5.901 198.35 5.901C200.313 5.901 201.899 7.48738 201.899 9.4502V18.3501Z" fill="#617080"/>
<path d="M198.35 32.5737C200.313 32.5737 201.899 34.1601 201.899 36.1229C201.899 38.0857 200.313 39.6721 198.35 39.6721C196.387 39.6721 194.801 38.0857 194.801 36.1229V32.5737H198.35Z" fill="#617080"/>
<path d="M198.35 30.7991C196.387 30.7991 194.801 29.2127 194.801 27.2499C194.801 25.2871 196.387 23.7007 198.35 23.7007H207.25C209.213 23.7007 210.799 25.2871 210.799 27.2499C210.799 29.2127 209.213 30.7991 207.25 30.7991H198.35Z" fill="#617080"/>
<path fill-rule="evenodd" clip-rule="evenodd" d="M379.327 15.584C379.026 16.2724 378.563 16.819 377.953 17.2085C377.414 17.5524 376.813 17.7381 376.167 17.7607C375.902 17.7672 375.662 17.5521 375.652 17.2729C375.643 16.994 375.858 16.7598 376.133 16.7502C376.601 16.7338 377.035 16.6 377.423 16.3524C377.863 16.0717 378.198 15.6748 378.417 15.1731C378.547 14.8771 378.525 14.5474 378.358 14.2683C378.193 13.993 377.918 13.8246 377.605 13.8063C376.933 13.7671 376.378 13.9724 375.94 14.4162C375.234 15.1337 374.945 16.4142 374.822 16.9609C374.716 17.4294 373.54 22.5004 373.064 24.5498C372.99 24.8725 372.71 25.0984 372.382 25.0987H372.382C372.055 25.0987 371.775 24.8731 371.699 24.5499L371.528 23.8089C370.988 21.4812 370.037 17.3804 369.943 16.9645C369.819 16.4142 369.53 15.1337 368.823 14.4159C368.386 13.9724 367.825 13.768 367.159 13.8063C366.846 13.8246 366.571 13.993 366.406 14.2683C366.239 14.5473 366.217 14.8771 366.346 15.1731C366.566 15.6748 366.901 16.0718 367.341 16.3524C367.729 16.6 368.163 16.7338 368.631 16.7502C368.906 16.7598 369.121 16.994 369.112 17.2729C369.102 17.5519 368.866 17.7687 368.597 17.7607C367.951 17.7381 367.35 17.5524 366.811 17.2085C366.201 16.8194 365.738 16.2728 365.436 15.584C365.176 14.9889 365.22 14.3004 365.556 13.7419C365.889 13.1871 366.467 12.8338 367.102 12.7968C368.055 12.7392 368.891 13.0541 369.527 13.701C370.437 14.6243 370.771 16.1036 370.913 16.7352C371.001 17.1255 371.833 20.7112 372.382 23.08C372.932 20.7108 373.763 17.1256 373.85 16.7384C373.993 16.1036 374.327 14.6243 375.236 13.701C375.874 13.0539 376.712 12.7399 377.662 12.7968C378.297 12.8338 378.875 13.1871 379.209 13.7421C379.544 14.3006 379.588 14.9892 379.327 15.584V15.584ZM374.874 7.58838C374.207 7.58838 373.527 7.70375 372.855 7.93152C372.549 8.03525 372.215 8.03504 371.91 7.93173C371.237 7.70375 370.557 7.58838 369.89 7.58838C366.057 7.58838 362.819 11.4777 362.819 16.0818C362.819 21.2073 366.681 25.7322 372.21 27.0858C372.322 27.1131 372.442 27.1131 372.553 27.0858C378.083 25.7322 381.945 21.2073 381.945 16.0818C381.945 11.4777 378.707 7.58838 374.874 7.58838" fill="#617080"/>
<path fill-rule="evenodd" clip-rule="evenodd" d="M372.787 28.0686C372.655 28.1011 372.519 28.1174 372.382 28.1174C372.245 28.1174 372.109 28.1011 371.977 28.0686C365.998 26.6053 361.823 21.6762 361.823 16.0819C361.823 10.9297 365.517 6.57719 369.89 6.57719C370.665 6.57719 371.45 6.71022 372.224 6.97236C372.326 7.00662 372.437 7.00672 372.54 6.97215C373.314 6.71022 374.099 6.57719 374.874 6.57719C379.247 6.57719 382.941 10.9297 382.941 16.0819C382.941 21.6762 378.766 26.6053 372.787 28.0686V28.0686ZM382.356 26.6786C382.356 26.958 382.132 27.1844 381.858 27.1844C381.583 27.1844 381.359 26.958 381.359 26.6786V25.9732C381.359 25.6938 381.583 25.4675 381.858 25.4675C382.132 25.4675 382.356 25.6938 382.356 25.9732V26.6786ZM382.356 29.8852C382.356 30.1643 382.132 30.3907 381.858 30.3907C381.583 30.3907 381.359 30.1643 381.359 29.8852V29.1795C381.359 28.9002 381.583 28.674 381.858 28.674C382.132 28.674 382.356 28.9002 382.356 29.1795V29.8852ZM379.197 31.4885C379.197 31.7677 378.974 31.994 378.699 31.994C378.424 31.994 378.201 31.7677 378.201 31.4885V30.7829C378.201 30.5036 378.424 30.2774 378.699 30.2774C378.974 30.2774 379.197 30.5036 379.197 30.7829V31.4885ZM379.197 34.6948C379.197 34.9742 378.974 35.2004 378.699 35.2004C378.424 35.2004 378.201 34.9742 378.201 34.6948V33.9893C378.201 33.71 378.424 33.4837 378.699 33.4837C378.974 33.4837 379.197 33.71 379.197 33.9893V34.6948ZM376.038 33.0916C376.038 33.371 375.815 33.5972 375.54 33.5972C375.265 33.5972 375.042 33.371 375.042 33.0916V32.3861C375.042 32.1067 375.265 31.8806 375.54 31.8806C375.815 31.8806 376.038 32.1067 376.038 32.3861V33.0916ZM376.038 36.298C376.038 36.5774 375.815 36.8037 375.54 36.8037C375.265 36.8037 375.042 36.5774 375.042 36.298V35.5925C375.042 35.3132 375.265 35.0869 375.54 35.0869C375.815 35.0869 376.038 35.3132 376.038 35.5925V36.298ZM372.88 31.4885C372.88 31.7677 372.657 31.994 372.382 31.994C372.107 31.994 371.884 31.7677 371.884 31.4885V30.7829C371.884 30.5036 372.107 30.2774 372.382 30.2774C372.657 30.2774 372.88 30.5036 372.88 30.7829V31.4885ZM372.88 34.6948C372.88 34.9742 372.657 35.2004 372.382 35.2004C372.107 35.2004 371.884 34.9742 371.884 34.6948V33.9893C371.884 33.71 372.107 33.4837 372.382 33.4837C372.657 33.4837 372.88 33.71 372.88 33.9893V34.6948ZM369.722 33.0916C369.722 33.371 369.499 33.5972 369.224 33.5972C368.949 33.5972 368.726 33.371 368.726 33.0916V32.3861C368.726 32.1067 368.949 31.8806 369.224 31.8806C369.499 31.8806 369.722 32.1067 369.722 32.3861V33.0916ZM369.722 36.298C369.722 36.5774 369.499 36.8037 369.224 36.8037C368.949 36.8037 368.726 36.5774 368.726 36.298V35.5925C368.726 35.3132 368.949 35.0869 369.224 35.0869C369.499 35.0869 369.722 35.3132 369.722 35.5925V36.298ZM366.563 31.4885C366.563 31.7677 366.34 31.994 366.065 31.994C365.79 31.994 365.567 31.7677 365.567 31.4885V30.7829C365.567 30.5036 365.79 30.2774 366.065 30.2774C366.34 30.2774 366.563 30.5036 366.563 30.7829V31.4885ZM366.563 34.6948C366.563 34.9742 366.34 35.2004 366.065 35.2004C365.79 35.2004 365.567 34.9742 365.567 34.6948V33.9893C365.567 33.71 365.79 33.4837 366.065 33.4837C366.34 33.4837 366.563 33.71 366.563 33.9893V34.6948ZM363.404 26.6786C363.404 26.958 363.181 27.1844 362.906 27.1844C362.631 27.1844 362.408 26.958 362.408 26.6786V25.9732C362.408 25.6938 362.631 25.4675 362.906 25.4675C363.181 25.4675 363.404 25.6938 363.404 25.9732V26.6786ZM363.404 29.8852C363.404 30.1643 363.181 30.3907 362.906 30.3907C362.631 30.3907 362.408 30.1643 362.408 29.8852V29.1795C362.408 28.9002 362.631 28.674 362.906 28.674C363.181 28.674 363.404 28.9002 363.404 29.1795V29.8852ZM372.382 4C365.544 4 360 9.6278 360 16.5701V27.4299C360 34.3721 365.544 40 372.382 40C379.22 40 384.764 34.3721 384.764 27.4299V16.5701C384.764 9.6278 379.22 4 372.382 4V4Z" fill="#617080"/>
<path fill-rule="evenodd" clip-rule="evenodd" d="M403.889 21.7348C400.805 20.9476 399.536 20.4646 399.536 18.7115C399.536 17.4423 400.685 16.4744 402.68 16.4744C404.735 16.4744 406.004 17.3208 406.972 18.591L409.451 16.5346C407.879 14.4803 405.762 13.3306 402.619 13.3306C398.689 13.3306 396.089 15.5677 396.089 18.832C396.089 22.3392 398.447 23.8504 402.377 24.9388C405.823 25.9057 407.214 26.6317 407.214 28.3858C407.214 30.0164 405.762 31.0446 403.224 31.0446C400.563 31.0446 398.568 29.8367 397.359 27.8406L394.699 29.7142C396.513 32.4965 399.414 34.1884 403.224 34.1884C407.939 34.1884 410.781 31.9523 410.781 28.203C410.781 24.5753 408.121 22.8222 403.889 21.7348" fill="#617080"/>
<path fill-rule="evenodd" clip-rule="evenodd" d="M424.805 30.9242C420.875 30.9242 418.276 27.9621 418.276 23.7902C418.276 19.558 420.875 16.596 424.805 16.596C428.675 16.596 431.213 19.558 431.213 23.7902C431.213 27.9621 428.675 30.9242 424.805 30.9242ZM431.093 17.2004C429.702 14.7213 427.345 13.3307 424.079 13.3307C418.578 13.3307 414.406 17.8049 414.406 23.7902C414.406 29.7142 418.578 34.1884 424.079 34.1884C427.345 34.1884 429.702 32.7988 431.093 30.3197V33.7055H434.781V13.8147H431.093V17.2004Z" fill="#617080"/>
<path fill-rule="evenodd" clip-rule="evenodd" d="M463.557 13.3303C460.352 13.3303 458.116 14.5403 456.543 17.0183C455.334 14.5403 453.219 13.3303 450.558 13.3303C447.837 13.3303 445.721 14.48 444.633 16.5354V13.8153H440.945V33.7051H444.633V22.2787C444.633 18.6509 446.508 16.6569 449.773 16.6569C452.613 16.6569 454.005 18.3487 454.005 21.4925V33.7051H457.692V22.1582C457.692 18.6509 459.506 16.6569 462.832 16.6569C465.612 16.6569 467.063 18.2875 467.063 21.4333V33.7051H470.751V21.0095C470.751 16.1719 467.729 13.3303 463.557 13.3303" fill="#617080"/>
<path fill-rule="evenodd" clip-rule="evenodd" d="M484.049 21.7348C480.965 20.9476 479.695 20.4647 479.695 18.7116C479.695 17.4424 480.845 16.4745 482.839 16.4745C484.895 16.4745 486.164 17.3209 487.132 18.5911L489.611 16.5347C488.039 14.4804 485.922 13.3307 482.779 13.3307C478.849 13.3307 476.249 15.5678 476.249 18.832C476.249 22.3393 478.607 23.8504 482.538 24.9389C485.984 25.9058 487.373 26.6317 487.373 28.3859C487.373 30.0165 485.922 31.0447 483.383 31.0447C480.723 31.0447 478.728 29.8368 477.519 27.8406L474.86 29.7142C476.673 32.4966 479.575 34.1884 483.383 34.1884C488.099 34.1884 490.941 31.9524 490.941 28.2031C490.941 24.5754 488.281 22.8222 484.049 21.7348" fill="#617080"/>
<path fill-rule="evenodd" clip-rule="evenodd" d="M504.965 30.9242C501.035 30.9242 498.436 27.9621 498.436 23.7902C498.436 19.558 501.035 16.596 504.965 16.596C508.835 16.596 511.373 19.558 511.373 23.7902C511.373 27.9621 508.835 30.9242 504.965 30.9242ZM511.253 17.2004C509.862 14.7213 507.504 13.3307 504.24 13.3307C498.738 13.3307 494.566 17.8049 494.566 23.7902C494.566 29.7142 498.738 34.1884 504.24 34.1884C507.504 34.1884 509.862 32.7988 511.253 30.3197V33.7055H514.941V13.8147H511.253V17.2004Z" fill="#617080"/>
<path fill-rule="evenodd" clip-rule="evenodd" d="M544.813 30.9242C540.884 30.9242 538.284 27.9621 538.284 23.7902C538.284 19.558 540.884 16.596 544.813 16.596C548.683 16.596 551.222 19.558 551.222 23.7902C551.222 27.9621 548.683 30.9242 544.813 30.9242ZM551.101 13.8147V17.2004C549.71 14.7213 547.353 13.3307 544.089 13.3307C538.586 13.3307 534.414 17.8049 534.414 23.7902C534.414 29.7142 538.586 34.1884 544.089 34.1884C547.353 34.1884 549.71 32.7988 551.101 30.3197V33.7055H554.789V13.8147H551.101Z" fill="#617080"/>
<path fill-rule="evenodd" clip-rule="evenodd" d="M524.793 18.4085V13.8148H521.106V33.7046H524.793V23.3452L532.958 16.0897L530.506 13.3298L524.793 18.4085Z" fill="#617080"/>
</svg>
